<?xml version="1.0" encoding="utf-8"?>
<!DOCTYPE svg PUBLIC "-//W3C//DTD SVG 1.0//EN" "http://www.w3.org/TR/2001/REC-SVG-20010904/DTD/svg10.dtd">
<svg version="1.0" xmlns="http://www.w3.org/2000/svg" width="653px" height="387px" viewBox="0 0 653 387" preserveAspectRatio="xMidYMid meet">
 <g fill="#63b4a8">
  <path d="M457.2 305.5 c-24 -4.6 -46.9 -18.1 -59.3 -34.9 -2.8 -3.8 -2.9 -4.3 -2.9 -15.5 0 -12.2 -1.4 -20.3 -4.9 -28.5 -2.5 -5.7 -12.2 -20.4 -15.7 -23.7 -1.3 -1.2 -2.4 -2.9 -2.4 -3.6 0 -0.8 2.8 -4 6.3 -7.2 7.3 -6.9 14.2 -18.2 16.9 -27.9 1.3 -4.7 1.8 -10.1 1.8 -18.3 l0 -11.6 7 -6.8 c16.7 -16.4 36 -25.9 59.4 -29.2 19.2 -2.7 41 0.8 58 9.4 12.6 6.3 22.4 13.3 30.6 22 8.3 8.7 12.7 15.2 18.7 27.9 4.6 9.8 5.2 12.8 2.7 13.8 -0.9 0.3 -10 0.6 -20.3 0.6 l-18.7 0 -4.2 -6.4 c-11.7 -17.9 -31.5 -28.5 -53.2 -28.8 -30.3 -0.4 -54.5 17.8 -63.6 47.7 -2.9 9.5 -2.5 28.7 0.8 38.2 7.8 22.1 23.5 37.4 45.3 43.9 8 2.4 24.6 2.4 33.4 0 15.3 -4.2 28.1 -13.4 37.2 -26.7 2.1 -3.1 4.5 -5.9 5.4 -6.3 0.8 -0.3 10.1 -0.3 20.5 0.1 16.5 0.5 19 0.8 19 2.2 0 2.7 -9.8 22.1 -14.4 28.6 -5.7 8 -19.1 20.6 -28.3 26.6 -8.4 5.5 -18.6 9.9 -29.8 12.9 -10.4 2.8 -34.4 3.6 -45.3 1.5z"/>
  <path d="M215.5 304.3 c-1.6 -0.2 -3.6 -1.2 -4.2 -2.1 -1 -1.2 -1.3 -12 -1.3 -45.9 0 -34.8 0.3 -44.3 1.3 -44.3 0.6 0 4.3 2.9 8.2 6.5 3.8 3.6 7.9 6.5 9 6.5 1.1 0 3.3 -1.6 4.9 -3.6 1.6 -2 4.4 -4.3 6.3 -5 3.1 -1.3 3.8 -1.3 7.1 0.3 2.3 1.1 4.5 3.3 5.8 5.8 2.2 4.2 2.2 4.2 9.4 2.9 4.7 -0.8 7.9 1.8 8.7 7.1 0.7 5 1.9 6.5 5 6.5 1.3 0 3.3 0.4 4.3 1 2 1.1 4 5.9 4 9.7 0 1.4 0.7 2.6 1.8 2.9 10 3.3 12.7 7.8 9.1 15.8 -2.2 4.9 -1.7 6.1 3.2 8 5.2 2.1 8.2 2 10.2 -0.2 3.3 -3.6 1.4 -10.1 -4.3 -15 -1.3 -1.1 -1.2 -1.2 0.6 -0.3 1.1 0.5 2.7 1.8 3.5 2.7 2.8 3.4 9.2 7.4 11.9 7.4 3.9 0 6.5 -3.3 6.4 -8.1 -0.1 -3.3 0.1 -3.9 1.5 -3.3 6.6 2.7 6.9 2.8 9.5 1.1 2.2 -1.5 2.6 -2.5 2.6 -6.7 0 -4.5 -0.4 -5.4 -4.5 -9.7 -5.9 -6.2 -5.8 -7 0.3 -1.1 2.6 2.5 5.7 5.1 6.9 5.7 6 3 11.3 -0.4 11.3 -7.3 0 -4.1 -0.4 -4.7 -8.2 -12.3 -4.6 -4.4 -11 -10.4 -14.3 -13.4 -3.3 -2.9 -9.8 -8.9 -14.4 -13.3 l-8.3 -7.9 -6.7 0.6 c-3.6 0.3 -10.4 2 -15 3.7 -16 5.9 -28 3.6 -32.9 -6.2 -4 -8 -3.3 -9.3 13.1 -22.8 8.6 -7.2 8.7 -9.4 0.4 -9.8 -11.1 -0.6 -23.5 5.3 -36.2 17.3 -8.3 7.9 -12.5 10.5 -17.1 10.8 l-3.9 0.2 -0.3 -44.3 -0.2 -44.3 64.7 0.3 c64.2 0.3 64.9 0.3 70.7 2.5 7.8 3 17.8 9.6 22.5 14.9 7.3 8.3 12.1 20.3 12.1 30.2 0 4.8 -2.5 14.5 -5.2 19.8 -2.7 5.5 -11.7 15.5 -16.1 17.9 l-3.5 1.8 -11.8 -10.3 c-6.6 -5.6 -14.6 -12 -17.8 -14.1 -5.2 -3.5 -6.6 -3.9 -12 -3.9 -5.5 0 -20.5 3.6 -28.9 6.9 -1.5 0.6 -5.8 3.9 -9.5 7.3 -3.8 3.5 -8.5 7.7 -10.5 9.5 -11.3 9.6 4.9 16 21.8 8.6 9.2 -4.1 21.8 -6 25.1 -3.8 1.3 0.8 8.5 7.3 16 14.3 7.5 7 18 16.4 23.3 21 22.1 19.1 22.8 19.9 25.1 26 7.9 20.7 -9.1 46.3 -35.7 53.8 -5 1.5 -13.5 1.7 -63.8 1.9 -31.9 0.2 -59.3 0.1 -61 -0.2z m70.9 -33.5 c3.8 -4.4 4.7 -8.7 2.2 -10.7 -2.4 -2 -6.5 -0.1 -9.6 4.4 -3.3 4.8 -3.5 5.7 -2 8.6 1.8 3.2 5.5 2.3 9.4 -2.3z m-18.6 -7.5 c1.1 -1 4.1 -4.2 6.6 -7.1 5.3 -6.1 5.9 -9.3 2.1 -11.8 -2.9 -1.9 -2.9 -2 -11.6 7.1 -3.6 3.7 -4.9 5.8 -4.9 8.1 0 5.2 3.9 7.1 7.8 3.7z m-9.1 -18 c7.3 -7.9 8.8 -11.4 6.1 -14.1 -2.8 -2.8 -5.6 -1.2 -12.7 6.8 -3.9 4.5 -7.1 8.8 -7.1 9.7 0 2.1 2.9 5.3 4.9 5.3 0.8 0 4.8 -3.5 8.8 -7.7z m-17.1 -9 c2.4 -2.7 4.9 -6.1 5.6 -7.7 1 -2.6 0.9 -3.1 -1.1 -4.7 -2.8 -2.3 -4.5 -1.7 -9.8 3.4 -4.6 4.4 -6.1 8.4 -4.3 11.6 1.7 3.4 4.9 2.5 9.6 -2.6z"/>
  <path d="M55.1 302.6 c-0.8 -1 -1 -28.1 -0.9 -101.7 l0.3 -100.4 67.8 -0.3 67.7 -0.2 0 19.5 0 19.5 -45.1 0 c-29.1 0 -45.7 0.4 -47 1 -1.8 1 -1.9 2.3 -1.9 21 0 10.9 0.4 20.1 0.8 20.4 0.4 0.2 20.8 0.8 45.4 1.2 l44.6 0.7 0.6 4.5 c0.8 5.7 0.8 24.6 0 29.3 l-0.6 3.6 -44.5 0.6 c-24.5 0.4 -44.9 1 -45.4 1.3 -0.5 0.3 -0.9 9.9 -0.9 21.3 l0 20.8 22.7 0.6 c12.4 0.4 33.6 0.7 47 0.7 l24.3 0 -0.2 18.8 -0.3 18.7 -66.6 0.3 c-55.3 0.2 -66.8 0 -67.8 -1.2z"/>
 </g>
</svg>